<svg width="60" height="63" viewBox="0 0 60 63" fill="none" xmlns="http://www.w3.org/2000/svg">
<path fill-rule="evenodd" clip-rule="evenodd" d="M41.9961 36.986C45.6321 36.603 49.1691 34.692 52.2251 31.348C52.7051 30.774 52.7971 30.199 52.7051 29.531C56.8141 24.562 59.2981 17.775 59.2981 12.516C59.2981 4.39196 55.4781 3.53297 48.9781 2.19397V2.09897C48.4981 1.33297 47.7331 0.855957 46.7791 0.855957C45.4421 0.855957 44.3871 1.90797 44.3871 3.15097C44.3871 4.39297 45.4421 5.44296 46.7791 5.44296C47.3521 5.44296 47.8331 5.25196 48.2151 4.86996L48.3071 4.96497C54.6171 6.30397 56.2441 6.59196 56.2441 12.516C56.2441 17.106 53.9521 23.317 50.3171 27.812C49.7441 27.812 49.1711 28.0029 48.6891 28.4799C46.8771 30.4869 43.9151 32.877 40.4701 32.877C36.9331 32.877 34.0691 30.488 32.2501 28.576C31.7701 28.098 31.1961 27.812 30.6231 27.812C26.9941 23.317 24.6031 17.106 24.6031 12.516C24.6031 6.59196 26.3221 6.30397 32.6311 4.96497V4.86996C33.0141 5.25196 33.5861 5.44296 34.1591 5.44296C35.4961 5.44296 36.5501 4.39197 36.5501 3.15097C36.5501 1.90797 35.4961 0.855957 34.1591 0.855957C33.1111 0.855957 32.3471 1.33397 31.9601 2.09897H31.8671C25.4661 3.53297 21.5471 4.29697 21.5471 12.517C21.5471 17.776 24.0291 24.563 28.2321 29.627C28.1391 30.2 28.2321 30.87 28.7131 31.349C31.7701 34.598 35.2141 36.509 38.7511 36.987L38.6511 47.308C38.6511 54.381 32.4411 60.118 24.8861 60.118C17.3381 60.118 11.2201 54.382 11.2201 47.308V38.2299C15.6191 37.5599 18.9651 34.12 18.9651 29.818C18.9651 25.039 14.7571 21.216 9.59412 21.216C4.52912 21.216 0.327148 25.039 0.327148 29.818C0.327148 34.12 3.76515 37.5599 8.06415 38.2299V47.308C8.06415 55.913 15.6191 62.89 24.8851 62.89C34.2571 62.89 41.8041 55.913 41.8041 47.308V36.987H41.9961V36.986Z" fill="white"/>
<path fill-rule="evenodd" clip-rule="evenodd" d="M9.50098 25.5151C11.983 25.5151 13.992 27.4272 13.992 29.8162C13.992 32.2062 11.983 34.2131 9.50098 34.2131C6.91898 34.2131 5.01001 32.2062 5.01001 29.8162C5.01001 27.4272 6.91898 25.5151 9.50098 25.5151Z" fill="#3A65FD"/>
</svg>
