<svg width="33" height="44" viewBox="0 0 33 44" fill="none" xmlns="http://www.w3.org/2000/svg">
<path fill-rule="evenodd" clip-rule="evenodd" d="M17.28 39.485L23.398 28.301L23.302 28.11L21.201 24.955L20.052 23.807C16.133 20.175 11.066 19.315 8.58201 19.124H8.29502L1.79502 30.976C1.03102 32.316 0.646028 33.94 0.744028 35.565C0.840028 38.624 2.558 41.396 5.331 42.926C9.537 45.218 14.892 43.691 17.28 39.485Z" fill="white"/>
<path fill-rule="evenodd" clip-rule="evenodd" d="M9.15601 16.6379L11.165 17.0219C15.083 17.5949 20.339 19.3149 23.685 24.2869L25.022 26.1989L31.809 13.7729C32.668 12.2429 33.054 10.6179 32.958 8.89793C32.862 5.64793 31.044 2.78093 28.177 1.25193C23.781 -1.23407 18.14 0.392932 15.752 4.88393L9.15601 16.6379Z" fill="white"/>
<path fill-rule="evenodd" clip-rule="evenodd" d="M26.839 3.73591C28.848 4.78691 30.09 6.79391 30.185 8.99191C30.185 10.2349 29.994 11.3819 29.421 12.4329L24.735 20.9409C21.294 17.0219 16.898 15.3009 13.552 14.5369L18.139 6.21891C19.861 3.06591 23.78 2.01391 26.839 3.73591Z" fill="#3A65FD"/>
</svg>
